<?xml version="1.0" encoding="utf-8"?>
<!-- Generator: Adobe Illustrator 28.2.0, SVG Export Plug-In . SVG Version: 6.00 Build 0)  -->
<svg version="1.1" id="Layer_1" xmlns="http://www.w3.org/2000/svg" xmlns:xlink="http://www.w3.org/1999/xlink" x="0px" y="0px"
	 viewBox="0 0 576 576" style="enable-background:new 0 0 576 576;" xml:space="preserve">
<style type="text/css">
	.st0{fill:url(#SVGID_1_);stroke:#000000;stroke-miterlimit:10;}
</style>
<linearGradient id="SVGID_1_" gradientUnits="userSpaceOnUse" x1="49.0699" y1="273.3805" x2="425.9599" y2="273.3805">
	<stop  offset="0" style="stop-color:#E3315C"/>
	<stop  offset="0.1196" style="stop-color:#B42749"/>
	<stop  offset="0.2766" style="stop-color:#7E1B33"/>
	<stop  offset="0.43" style="stop-color:#511121"/>
	<stop  offset="0.5762" style="stop-color:#2E0A13"/>
	<stop  offset="0.7133" style="stop-color:#150408"/>
	<stop  offset="0.8377" style="stop-color:#050102"/>
	<stop  offset="0.9382" style="stop-color:#000000"/>
</linearGradient>
<path class="st0" d="M449.71,273.53c-62.44,40.94-60.56,25.29-103.35,76.69c-0.11,0.14-0.23,0.27-0.36,0.4
	c-24.41,24.51-89.44,89.05-126.8,90.98c-0.32,0.02-0.64,0.01-0.96-0.02c-64.79-6.09-144.16-52.13-77.43-121.63
	c50.1-49.59,33.99-117.75,91.97-143.97c12.77-6.75,24.37-10.2,32.28-13.44c7.23-2.96,3.17-13.94-4.23-11.45
	c-21.63,7.3-62.61,36.08-95.82,60.87c-61.56,46.47-83.63,91.32-113.59,40.48c-0.34-0.58-0.59-1.22-0.72-1.87
	c-12.89-62.32,53.79-74.08,96.92-79.85c0.15-0.02,0.28-0.04,0.43-0.07c19.96-4.11,102.61-35.58,115.97-43.16
	c12.55-6.23,54.81-29.47,81.45-20.15c0.33,0.12,0.67,0.2,1.02,0.25c15.37,2.38,21.62,17.93,16.08,30.45
	c-25.24,51.3-107.54,31.82-131,89.01c-0.26,0.64-0.41,1.34-0.44,2.03c-1.41,29.13-1,56.29-21.62,82.7
	c-17,24.59-45.58,59.6-0.69,66.47c11.94,2.79,41.37-17.43,45.58-24.62c0.21-0.37,0.49-0.68,0.8-0.98
	c6.33-6.07,28.12-60.53,27.16-72.79c0.37-17.51-2.26-37.34,9.45-51.35c4.63-5.92,9.61-8.68,17.98-13.2
	c46.92-24.26,60.59-33.11,126.32-30c1.8,0.14,7.59,0.2,17,2.51c0.38,0.1,6.68,1.98,11,5.67c4.32,3.68,7.58,12,8.67,16.62
	c3.21,13.71,1.51,50.43-22.62,63.15C449.99,273.35,449.85,273.44,449.71,273.53z"/>
</svg>
